<svg width="102" height="29" viewBox="0 0 102 29" fill="none" xmlns="http://www.w3.org/2000/svg">
<path d="M0.104839 28.7187H3.25002V21.355C3.25002 20.997 3.30244 20.639 3.40728 20.3066C3.7218 19.4629 4.68873 18.5424 5.89438 18.5424C7.38834 18.5424 8.09601 19.7697 8.09601 21.5084V28.7187H11.2412V21.2527C11.2412 20.8947 11.2936 20.4856 11.3984 20.2044C11.7392 19.3095 12.5517 18.5424 13.6525 18.5424C15.1989 18.5424 15.9327 19.7697 15.9327 21.8408V28.7187H19.0779V21.3805C19.0779 17.3918 16.9287 15.9855 14.8319 15.9855C13.7573 15.9855 12.9448 16.2412 12.211 16.727C11.6343 17.085 11.1101 17.5964 10.6646 18.2867H10.6122C10.0617 16.906 8.75125 15.9855 7.07382 15.9855C4.89841 15.9855 3.59075 17.1361 2.98792 18.1077H2.90929L2.75203 16.2668H0C0.0524197 17.3407 0.104839 18.5424 0.104839 19.9742V28.7187Z" fill="white"/>
<path d="M31.2968 21.2527C31.2968 18.5168 30.1174 15.9855 26.0287 15.9855C24.0105 15.9855 22.3593 16.5225 21.4157 17.085L22.0448 19.1305C22.9097 18.5935 24.2202 18.21 25.4783 18.21C27.7323 18.21 28.073 19.5652 28.073 20.3833V20.5879C23.3553 20.5623 20.4984 22.1731 20.4984 25.2925C20.4984 27.1846 21.9399 29 24.5085 29C26.1859 29 27.5226 28.3096 28.2827 27.338H28.3613L28.5972 28.7187H31.5065C31.3493 27.9516 31.2968 26.8522 31.2968 25.7272V21.2527ZM28.1517 24.3465C28.1517 24.5766 28.1517 24.8067 28.073 25.0368C27.7585 25.9317 26.8412 26.7499 25.5307 26.7499C24.5085 26.7499 23.696 26.1874 23.696 24.9601C23.696 23.068 25.8714 22.6078 28.1517 22.6334V24.3465Z" fill="white"/>
<path d="M33.6894 28.7187H36.9132V21.3805C36.9132 21.0226 36.9656 20.639 37.0704 20.3833C37.4112 19.4373 38.3023 18.5424 39.5866 18.5424C41.3426 18.5424 42.0241 19.8975 42.0241 21.6873V28.7187H45.2479V21.3294C45.2479 17.3918 42.9414 15.9855 40.7136 15.9855C38.5906 15.9855 37.2015 17.1617 36.6249 18.1333H36.5462L36.389 16.2668H33.5845C33.6369 17.3407 33.6894 18.5424 33.6894 19.9742V28.7187Z" fill="white"/>
<path d="M56.0297 11.2703V17.5964H55.9772C55.4006 16.6759 54.1425 15.9855 52.3865 15.9855C49.3199 15.9855 46.6465 18.4657 46.6727 22.6334C46.6727 26.4687 49.084 29 52.1506 29C53.9853 29 55.5317 28.1306 56.2917 26.7499H56.3442L56.5014 28.7187H59.3583C59.3059 27.8749 59.2535 26.4942 59.2535 25.2158V11.2703H56.0297ZM56.0297 23.3237C56.0297 23.6561 56.0034 23.9629 55.9248 24.2442C55.6103 25.5993 54.4571 26.4687 53.1466 26.4687C51.1022 26.4687 49.949 24.8067 49.949 22.5055C49.949 20.2044 51.1022 18.4146 53.1728 18.4146C54.6405 18.4146 55.6627 19.4117 55.951 20.6135C56.0034 20.8692 56.0297 21.2015 56.0297 21.4572V23.3237Z" fill="white"/>
<path d="M64.735 28.7187V16.2668H61.5112V28.7187H64.735Z" fill="white"/>
<path d="M67.1056 28.7187H70.3294V22.2499C70.3294 21.9175 70.3556 21.5851 70.408 21.3038C70.6963 19.872 71.7709 18.9259 73.2911 18.9259C73.6843 18.9259 73.9726 18.9515 74.2609 19.0026V16.1928C73.9932 16.1928 73.9152 16.1928 73.6007 16.1928C72.2306 16.1928 70.6115 16.8239 69.9887 18.6191H69.91L69.779 16.2668H67.0008C67.0794 17.3663 67.1056 18.5935 67.1056 20.2811V28.7187Z" fill="white"/>
<path d="M79.0129 28.7187V16.2668H75.789V28.7187H79.0129Z" fill="white"/>
<path fill-rule="evenodd" clip-rule="evenodd" d="M99.3234 2.97536C97.7094 1.17108 95.9936 1.98777 94.6301 2.65188C94.0566 2.92947 89.9169 5.22925 89.9169 5.22925C87.6487 6.14575 85.8825 5.14554 85.1896 4.3036C85.1234 4.22377 85.0635 4.13903 85.0106 4.05013L84.8491 3.77596C84.5761 3.31326 84.2727 2.86841 83.9409 2.44429C83.7394 2.18718 83.5213 1.94313 83.2877 1.71361C81.7358 0.177739 79.2557 -0.896988 75.1102 1.05522C73.1474 2.17012 66.7535 5.75002 66.7535 5.75002C64.3506 6.71923 62.5132 5.53895 61.9162 4.67293C61.8894 4.64055 61.8659 4.60556 61.846 4.56858L61.7676 4.43783L61.3626 3.78858C61.1799 3.5042 60.9838 3.22824 60.7751 2.96158C60.5717 2.70615 60.3533 2.46254 60.1209 2.23206C58.5794 0.705378 56.1122 -0.367073 52.003 1.54847C49.5182 2.93866 43.7387 6.1767 43.7387 6.1767L43.7364 6.17901L39.5066 8.5476L41.6952 11.1812C42.6163 12.0414 44.3473 13.4523 47.0252 12.2628C47.0252 12.2628 54.4163 8.06812 54.4456 8.05554C60.7645 4.65688 63.8825 7.90414 65.2612 10.0686C65.3092 10.1362 65.3479 10.2096 65.3912 10.275L65.3935 10.2785C65.4111 10.3048 65.4216 10.3289 65.4368 10.3542L65.5925 10.6042C66.2643 11.6021 67.3235 12.2468 68.5864 12.217C69.2828 12.2032 69.7556 11.9806 70.4438 11.6056L77.5949 7.54052L77.6101 7.53365C84.0087 4.0937 87.1793 7.55314 88.5335 9.71757C88.6388 9.90452 88.7582 10.0835 88.8811 10.2498C89.5517 11.141 90.4764 11.7249 91.6514 11.6962C92.4274 11.6813 93.297 11.2248 93.4269 11.141L102 6.29139C102.002 6.29371 101.127 4.99642 99.3234 2.97536Z" fill="#FFB700"/>
</svg>
