<svg width="595" height="81" viewBox="0 0 595 81" fill="none" xmlns="http://www.w3.org/2000/svg">
<mask id="mask0_1_3844" style="mask-type:alpha" maskUnits="userSpaceOnUse" x="0" y="0" width="595" height="81">
<path d="M0 0H595V81H0V0Z" fill="#002674"/>
</mask>
<g mask="url(#mask0_1_3844)">
<path fill-rule="evenodd" clip-rule="evenodd" d="M413.335 -1.29939C398.403 -23.3602 381.23 -14.1316 367.576 -6.6175C361.834 -3.47766 320.244 22.7237 320.244 22.7237C297.619 32.974 280.817 20.4749 274.439 10.1992C273.828 9.22472 273.283 8.19348 272.807 7.11477L271.358 3.78852C268.907 -1.82529 266.15 -7.2352 263.105 -12.4062C261.257 -15.541 259.239 -18.525 257.063 -21.34C242.611 -40.174 218.86 -53.7846 177.379 -31.7385C157.648 -19.0227 93.3986 21.7786 93.3986 21.7786C69.4319 32.6172 52.0173 17.9441 46.5889 7.41036C46.3416 7.01501 46.1282 6.58967 45.9516 6.1416L45.2467 4.55484L41.5934 -3.32902C39.9409 -6.78402 38.1537 -10.1424 36.2385 -13.3936C34.3702 -16.509 32.3488 -19.4878 30.1848 -22.3138C15.8309 -41.0349 -7.79559 -54.6143 -48.9045 -32.9951C-73.8724 -17.1512 -131.948 19.7551 -131.948 19.7551L-131.972 19.782L-174.476 46.7778L-154.316 78.9264C-145.714 89.4918 -129.45 106.887 -102.688 93.502C-102.688 93.502 -28.3923 45.6621 -28.1001 45.5209C35.3301 6.8621 64.2895 46.6321 76.7492 72.9239C77.1867 73.7472 77.5297 74.6363 77.9224 75.4314L77.9431 75.4732C78.1028 75.7936 78.1942 76.0847 78.3313 76.391L79.735 79.4272C85.833 91.5604 95.8888 99.5919 108.257 99.6262C115.076 99.677 119.807 97.1642 126.718 92.8949L198.605 46.5304L198.757 46.453C262.986 7.32541 292.36 49.6473 304.579 75.9315C305.52 78.198 306.603 80.3735 307.727 82.3993C313.864 93.2569 322.632 100.52 334.14 100.541C341.739 100.603 350.463 95.4168 351.773 94.4562L441.604 44.7927C441.625 44.8211 430.019 23.4106 413.335 -1.29939Z" fill="url(#paint0_linear_1_3844)"/>
<path fill-rule="evenodd" clip-rule="evenodd" d="M413.335 -1.29939C398.403 -23.3602 381.23 -14.1316 367.576 -6.6175C361.834 -3.47766 320.244 22.7237 320.244 22.7237C297.619 32.974 280.817 20.4749 274.439 10.1992C273.828 9.22472 273.283 8.19348 272.807 7.11477L271.358 3.78852C268.907 -1.82529 266.15 -7.2352 263.105 -12.4062C261.257 -15.541 259.239 -18.525 257.063 -21.34C242.611 -40.174 218.86 -53.7846 177.379 -31.7385C157.648 -19.0227 93.3986 21.7786 93.3986 21.7786C69.4319 32.6172 52.0173 17.9441 46.5889 7.41036C46.3416 7.01501 46.1282 6.58967 45.9516 6.1416L45.2467 4.55484L41.5934 -3.32902C39.9409 -6.78402 38.1537 -10.1424 36.2385 -13.3936C34.3702 -16.509 32.3488 -19.4878 30.1848 -22.3138C15.8309 -41.0349 -7.79559 -54.6143 -48.9045 -32.9951C-73.8724 -17.1512 -131.948 19.7551 -131.948 19.7551L-131.972 19.782L-174.476 46.7778L-154.316 78.9264C-145.714 89.4918 -129.45 106.887 -102.688 93.502C-102.688 93.502 -28.3923 45.6621 -28.1001 45.5209C35.3301 6.8621 64.2895 46.6321 76.7492 72.9239C77.1867 73.7472 77.5297 74.6363 77.9224 75.4314L77.9431 75.4732C78.1028 75.7936 78.1942 76.0847 78.3313 76.391L79.735 79.4272C85.833 91.5604 95.8888 99.5919 108.257 99.6262C115.076 99.677 119.807 97.1642 126.718 92.8949L198.605 46.5304L198.757 46.453C262.986 7.32541 292.36 49.6473 304.579 75.9315C305.52 78.198 306.603 80.3735 307.727 82.3993C313.864 93.2569 322.632 100.52 334.14 100.541C341.739 100.603 350.463 95.4168 351.773 94.4562L441.604 44.7927C441.625 44.8211 430.019 23.4106 413.335 -1.29939Z" fill="url(#paint1_linear_1_3844)" fill-opacity="0.4"/>
</g>
<defs>
<linearGradient id="paint0_linear_1_3844" x1="88.0291" y1="-72.0681" x2="-94.9777" y2="192.847" gradientUnits="userSpaceOnUse">
<stop stop-color="#007DFE"/>
<stop offset="0.65793" stop-color="#007DFE" stop-opacity="0"/>
</linearGradient>
<linearGradient id="paint1_linear_1_3844" x1="424.695" y1="67.5516" x2="-64.2552" y2="78.5291" gradientUnits="userSpaceOnUse">
<stop stop-color="#0E76E1"/>
<stop offset="1" stop-color="#022B55" stop-opacity="0"/>
</linearGradient>
</defs>
</svg>
